<?xml version="1.0" standalone="no"?>
<!DOCTYPE svg PUBLIC "-//W3C//DTD SVG 20010904//EN"
 "http://www.w3.org/TR/2001/REC-SVG-20010904/DTD/svg10.dtd">
<svg version="1.0" xmlns="http://www.w3.org/2000/svg"
 width="900.000000pt" height="336.000000pt" viewBox="0 0 900.000000 336.000000"
 preserveAspectRatio="xMidYMid meet">
<metadata>
Created by potrace 1.10, written by Peter Selinger 2001-2011
</metadata>
<g transform="translate(0.000000,336.000000) scale(0.100000,-0.100000)"
fill="#ffffff" stroke="none">
<path d="M940 2788 c-12 -24 -30 -56 -41 -73 -30 -48 -33 -57 -21 -74 7 -9 14
-22 17 -28 14 -37 24 -53 59 -105 18 -27 21 -28 116 -28 l98 0 36 42 c20 23
36 49 36 59 0 9 7 22 15 29 16 14 21 85 6 94 -5 3 -19 25 -31 48 -40 78 -41
78 -161 78 l-107 0 -22 -42z"/>
<path d="M1513 2818 c-5 -7 -16 -28 -23 -47 -7 -18 -21 -41 -30 -50 -9 -9 -21
-28 -27 -42 -10 -24 -7 -33 22 -80 18 -30 42 -67 52 -84 18 -30 19 -30 122
-33 96 -3 106 -1 127 19 13 13 24 30 24 38 0 9 7 25 15 35 8 11 15 27 15 37 0
9 7 19 15 23 16 6 21 41 6 50 -12 8 -51 83 -51 100 0 7 -8 20 -18 29 -15 14
-40 17 -129 17 -77 0 -113 -4 -120 -12z"/>
<path d="M2070 2809 c0 -12 -12 -38 -27 -58 -61 -80 -70 -101 -51 -115 9 -7
26 -30 38 -51 11 -22 25 -47 30 -55 5 -8 11 -23 14 -32 5 -16 19 -18 111 -18
116 0 130 7 161 73 20 41 37 71 52 89 10 12 6 23 -18 56 -17 23 -30 48 -30 56
0 8 -5 18 -11 21 -5 4 -14 18 -19 31 -9 24 -12 24 -130 24 -115 0 -120 -1
-120 -21z"/>
<path d="M4158 2250 c-2 -144 1 -268 5 -276 10 -17 67 -18 90 -1 16 11 17 36
15 272 l-3 260 -52 3 -52 3 -3 -261z"/>
<path d="M4480 2371 c-67 -27 -105 -82 -113 -163 -10 -105 11 -163 75 -211 61
-45 133 -46 181 -1 34 31 45 30 49 -3 2 -23 9 -29 34 -31 16 -2 42 2 57 7 l27
11 0 182 c0 101 -4 188 -8 195 -18 29 -112 28 -112 -2 0 -23 -19 -28 -37 -9
-19 19 -75 44 -95 43 -7 0 -33 -8 -58 -18z m113 -92 c67 -35 91 -92 63 -151
-21 -44 -64 -70 -104 -62 -41 8 -63 34 -69 81 -8 62 8 106 48 125 42 21 36 20
62 7z"/>
<path d="M5104 2377 c-17 -7 -39 -20 -49 -30 -17 -18 -19 -17 -44 7 -33 32
-85 35 -101 7 -15 -29 -13 -374 2 -389 15 -15 63 -16 89 -2 17 10 19 23 20
123 1 62 4 123 8 137 10 35 61 63 93 51 54 -20 58 -32 58 -176 0 -145 0 -145
60 -145 59 0 60 1 60 137 0 68 4 133 10 143 5 10 24 25 41 34 27 13 35 14 64
2 18 -8 38 -23 44 -34 6 -12 11 -73 11 -139 0 -131 5 -143 55 -143 63 0 67 10
63 166 -3 135 -4 142 -31 183 -39 59 -104 88 -159 72 -21 -7 -53 -25 -72 -41
-40 -35 -47 -36 -63 -10 -27 42 -109 66 -159 47z"/>
<path d="M5896 2375 c-21 -7 -43 -18 -49 -24 -17 -17 -34 -13 -40 9 -6 22 -54
28 -88 10 -18 -10 -19 -24 -19 -294 0 -316 -1 -310 67 -304 l38 3 2 100 c2 55
5 111 8 123 l6 24 32 -25 c70 -53 150 -43 210 25 21 24 43 53 48 66 12 31 11
134 -1 168 -17 44 -70 98 -114 116 -50 21 -51 21 -100 3z m47 -101 c35 -17 67
-67 67 -105 0 -35 -28 -76 -64 -93 -31 -15 -39 -15 -70 -2 -42 18 -59 47 -58
103 0 58 24 88 89 112 1 1 18 -6 36 -15z"/>
<path d="M6931 2379 c-13 -5 -36 -18 -51 -29 -36 -25 -39 -25 -50 5 -8 20 -16
25 -44 25 -63 0 -66 -10 -66 -215 0 -172 1 -185 19 -195 26 -14 74 -13 89 2 8
8 12 52 12 130 0 132 9 159 60 177 34 11 83 -8 100 -39 6 -10 10 -75 10 -143
0 -136 1 -137 60 -137 60 0 60 0 60 151 0 180 -19 225 -113 264 -41 17 -52 18
-86 4z"/>
<path d="M7340 2372 c-31 -12 -56 -32 -81 -66 -62 -81 -63 -183 -3 -266 42
-59 72 -75 140 -74 45 1 60 6 83 28 32 31 41 26 41 -22 0 -95 -92 -138 -161
-76 -12 11 -33 14 -70 12 -62 -3 -67 -16 -28 -73 27 -39 108 -75 169 -75 49 0
123 32 152 65 47 54 56 104 57 320 0 110 -3 206 -8 214 -5 7 -29 16 -55 18
-43 5 -46 4 -56 -22 -10 -26 -12 -26 -28 -12 -18 16 -85 47 -99 46 -4 0 -28
-8 -53 -17z m114 -96 c35 -14 66 -65 66 -108 0 -58 -64 -115 -115 -102 -99 25
-89 199 13 223 1 1 17 -5 36 -13z"/>
<path d="M6230 2373 c-26 -10 -30 -26 -30 -138 0 -125 15 -180 65 -234 29 -30
37 -33 92 -34 51 0 66 4 97 28 32 25 36 26 36 8 0 -27 19 -43 51 -43 60 0 59
-5 59 204 0 136 -4 196 -12 204 -20 20 -76 15 -88 -7 -5 -11 -10 -73 -10 -139
0 -139 -8 -155 -82 -155 -33 0 -47 6 -65 27 -21 25 -23 36 -23 150 0 104 -3
125 -16 130 -19 7 -53 7 -74 -1z"/>
<path d="M693 2350 c-3 -11 -9 -20 -13 -20 -8 0 -80 -140 -80 -157 0 -14 36
-91 61 -128 10 -16 22 -38 25 -47 6 -16 20 -18 110 -18 84 0 106 3 109 15 12
37 17 46 68 118 30 45 35 78 12 97 -8 7 -15 17 -15 23 0 5 -12 26 -27 46 -16
19 -30 47 -33 61 -5 25 -7 25 -108 28 -97 3 -104 1 -109 -18z"/>
<path d="M2366 2353 c-3 -10 -15 -31 -26 -48 -41 -62 -60 -105 -60 -135 0 -34
35 -110 50 -110 6 0 10 -7 10 -15 0 -9 7 -27 16 -40 16 -24 21 -25 115 -25 99
0 99 0 111 28 7 15 24 43 38 62 14 19 34 52 45 72 18 35 18 38 2 56 -9 10 -17
22 -17 26 0 5 -13 25 -30 46 -16 21 -30 44 -30 52 0 35 -34 48 -127 48 -77 0
-92 -3 -97 -17z"/>
<path d="M1290 2306 c0 -8 -16 -38 -36 -67 -40 -61 -40 -72 8 -147 l33 -52 78
0 78 0 20 45 c11 24 24 47 29 50 15 10 12 61 -5 75 -8 7 -15 21 -15 31 0 10
-5 21 -11 24 -5 4 -14 18 -19 31 -9 22 -15 24 -85 24 -58 0 -75 -3 -75 -14z"/>
<path d="M1853 2308 c-6 -7 -21 -33 -34 -58 -13 -25 -30 -53 -38 -62 -12 -16
-12 -20 2 -36 10 -10 17 -22 17 -25 0 -4 11 -25 25 -47 l25 -40 85 0 c63 0 85
3 85 13 0 14 32 81 50 101 8 11 6 24 -11 55 -11 23 -25 44 -30 47 -5 3 -9 14
-9 24 0 11 -9 24 -19 30 -28 14 -136 13 -148 -2z"/>
<path d="M408 1853 c-9 -10 -27 -37 -40 -61 -38 -70 -43 -79 -57 -96 -12 -15
-10 -23 17 -62 18 -24 32 -47 32 -49 0 -3 11 -23 25 -45 l25 -40 99 0 99 0 29
38 c34 45 51 72 59 92 3 8 9 23 14 32 7 12 -1 34 -25 80 -19 35 -38 69 -42 77
-20 43 -41 51 -131 51 -72 0 -92 -3 -104 -17z"/>
<path d="M2640 1848 c-10 -23 -15 -33 -38 -73 -7 -11 -16 -30 -21 -42 -6 -11
-15 -24 -20 -28 -20 -12 -11 -51 19 -80 17 -16 30 -34 30 -41 0 -7 8 -29 18
-48 l17 -36 102 0 c83 0 107 3 123 17 11 10 20 22 20 27 0 15 40 95 51 102 11
7 12 74 1 74 -5 0 -26 34 -47 75 l-38 75 -104 0 c-98 0 -104 -1 -113 -22z"/>
<path d="M983 1820 c-14 -6 -23 -18 -23 -30 0 -11 -12 -39 -26 -62 -23 -36
-25 -44 -13 -62 7 -12 19 -34 27 -51 44 -87 34 -80 118 -83 61 -2 80 1 95 14
11 9 19 21 19 27 0 5 14 29 30 54 17 24 30 50 30 58 0 8 -13 34 -30 58 -16 25
-30 50 -30 56 0 5 -9 15 -19 21 -24 12 -147 12 -178 0z"/>
<path d="M2099 1802 c-17 -14 -29 -34 -29 -48 0 -14 -7 -27 -15 -30 -9 -4 -15
-19 -15 -40 0 -22 6 -37 15 -40 8 -4 15 -17 15 -29 0 -13 5 -27 11 -30 5 -4
14 -18 19 -31 9 -23 14 -24 89 -24 77 0 80 1 101 31 12 16 33 51 47 76 l24 47
-27 53 c-39 78 -61 92 -141 90 -54 0 -71 -5 -94 -25z"/>
<path d="M1535 1758 c-16 -29 -32 -57 -34 -62 -2 -5 12 -37 30 -72 l34 -64 60
0 c70 0 70 1 111 60 45 66 45 67 30 83 -8 7 -23 31 -35 52 -27 50 -35 55 -106
55 l-60 0 -30 -52z"/>
<path d="M5485 1487 c-58 -27 -70 -51 -70 -139 0 -64 -3 -82 -17 -92 -31 -23
-67 -84 -69 -118 -5 -69 1 -86 49 -137 46 -49 51 -51 99 -51 51 0 123 30 123
51 0 20 31 7 52 -21 20 -27 27 -30 78 -30 31 0 60 3 63 7 7 6 -34 67 -59 88
-6 6 -20 26 -30 45 -11 19 -34 51 -52 70 -18 19 -42 51 -52 71 -10 19 -26 41
-34 48 -27 22 -57 78 -50 94 14 37 68 31 78 -9 6 -23 11 -25 54 -22 41 3 47 6
50 26 5 35 -15 76 -49 101 -38 28 -122 37 -164 18z m50 -332 c30 -29 31 -45 4
-79 -39 -50 -119 -24 -119 38 0 61 70 86 115 41z"/>
<path d="M8291 1486 c-8 -9 -11 -90 -9 -272 l3 -259 55 0 55 0 3 259 c2 182
-1 263 -9 272 -6 8 -28 14 -49 14 -21 0 -43 -6 -49 -14z"/>
<path d="M3354 1466 c-3 -8 -4 -27 -2 -43 3 -27 6 -28 65 -33 34 -3 64 -8 68
-12 4 -3 7 -100 8 -215 l2 -208 50 0 50 0 2 208 c1 115 4 212 8 215 4 4 34 9
68 12 l62 5 0 40 0 40 -188 3 c-156 2 -188 0 -193 -12z"/>
<path d="M6062 1468 c-13 -13 -15 -37 -6 -62 5 -12 21 -16 69 -16 48 0 64 -4
69 -16 3 -9 6 -108 6 -220 l0 -204 55 0 c37 0 55 4 56 13 0 6 0 96 -1 199 -1
115 3 195 10 207 8 16 22 21 68 23 l57 3 0 40 0 40 -185 3 c-136 2 -189 -1
-198 -10z"/>
<path d="M3920 1350 c-19 -10 -48 -32 -64 -49 -121 -127 -26 -351 148 -351 96
0 152 36 199 127 32 60 17 165 -29 211 -7 7 -17 19 -21 26 -5 7 -27 23 -50 35
-53 27 -134 27 -183 1z m162 -124 c11 -13 18 -39 18 -69 0 -40 -5 -53 -29 -78
-33 -32 -67 -37 -110 -14 -31 16 -41 39 -41 100 0 49 21 82 64 100 27 12 35
11 56 -2 14 -8 33 -25 42 -37z"/>
<path d="M4317 1363 c-4 -3 -7 -75 -7 -159 l0 -152 46 -51 c44 -49 48 -51 97
-51 39 0 60 6 89 26 39 27 53 26 53 -4 0 -14 10 -17 55 -17 l55 0 3 181 c3
217 -1 234 -57 234 -22 0 -43 -6 -48 -12 -4 -7 -10 -71 -13 -141 -5 -122 -6
-129 -30 -147 -32 -25 -78 -25 -110 0 -24 18 -25 24 -29 152 -2 85 -7 136 -15
140 -14 10 -80 10 -89 1z"/>
<path d="M4832 1362 c-9 -6 -12 -55 -10 -208 l3 -199 55 0 55 0 5 127 c5 121
6 127 30 146 15 11 39 22 55 24 28 3 30 6 33 52 2 27 -1 53 -7 59 -12 12 -56
-14 -83 -47 -17 -21 -17 -21 -23 -1 -13 42 -23 50 -61 53 -21 1 -45 -2 -52 -6z"/>
<path d="M6553 1362 c-8 -5 -12 -62 -13 -197 -1 -105 -1 -196 -1 -202 1 -9 19
-13 55 -13 l54 0 3 126 c4 123 5 126 32 150 16 14 41 24 58 24 29 0 29 0 29
60 0 74 -12 77 -68 18 l-41 -41 -6 29 c-4 16 -8 35 -11 42 -4 13 -71 17 -91 4z"/>
<path d="M6919 1346 c-62 -42 -91 -90 -96 -159 -8 -94 8 -138 70 -191 47 -42
57 -46 102 -46 42 0 57 5 88 31 30 25 38 28 42 15 3 -9 7 -23 10 -32 4 -12 17
-14 57 -12 l53 3 0 205 0 205 -55 0 c-49 0 -55 -2 -58 -22 -3 -21 -32 -34 -32
-15 0 17 -60 42 -102 42 -29 0 -55 -8 -79 -24z m175 -110 c31 -29 36 -40 36
-79 0 -40 -4 -49 -37 -76 -42 -35 -56 -37 -105 -17 -26 11 -38 24 -48 54 -16
51 -7 87 32 124 41 38 77 37 122 -6z"/>
<path d="M7325 1359 c-7 -10 2 -38 30 -104 7 -16 20 -57 30 -90 16 -59 26 -88
61 -172 l18 -43 70 0 71 0 18 48 c10 26 25 60 32 75 8 16 15 36 15 46 0 9 7
26 15 37 8 10 15 27 15 37 0 9 11 50 25 89 28 80 25 88 -36 88 -47 0 -68 -24
-85 -97 -27 -120 -55 -203 -69 -203 -11 0 -45 87 -45 117 0 24 -37 131 -56
161 -11 17 -24 22 -59 22 -24 0 -47 -5 -50 -11z"/>
<path d="M7910 1350 c-54 -28 -87 -70 -105 -132 -15 -54 -15 -62 0 -115 17
-60 58 -113 107 -139 38 -20 133 -18 171 4 37 20 87 71 87 88 0 27 -79 32
-120 9 -52 -29 -130 -8 -130 36 0 17 8 19 73 21 91 3 157 5 180 7 26 1 30 23
18 83 -26 124 -173 196 -281 138z m131 -93 c9 -7 21 -22 27 -34 15 -27 1 -33
-84 -33 -53 0 -64 3 -64 17 0 48 81 81 121 50z"/>
<path d="M2404 1291 c-2 -2 -4 -13 -4 -23 0 -10 -7 -21 -15 -24 -8 -4 -15 -14
-15 -23 0 -10 -11 -28 -25 -41 -37 -34 -32 -57 28 -128 15 -18 27 -39 27 -47
0 -22 152 -21 174 1 9 8 16 20 16 26 0 5 14 27 30 48 31 39 38 64 19 75 -5 4
-15 17 -20 28 -5 12 -20 40 -32 62 l-22 40 -78 5 c-43 3 -81 3 -83 1z"/>
<path d="M693 1273 c-4 -10 -12 -22 -20 -26 -7 -4 -13 -15 -13 -24 0 -9 -8
-25 -17 -35 -28 -31 -20 -93 16 -134 17 -19 31 -41 31 -49 0 -12 18 -15 90
-15 86 0 91 1 100 24 5 13 14 27 19 31 6 3 11 14 11 24 0 10 7 24 15 31 17 14
20 56 6 65 -6 3 -21 30 -35 59 -14 30 -33 56 -42 60 -8 3 -47 6 -85 6 -57 0
-71 -3 -76 -17z"/>
<path d="M1302 1228 c-7 -7 -12 -18 -12 -26 0 -8 -8 -27 -17 -43 -16 -26 -16
-29 0 -47 9 -10 17 -28 17 -40 0 -35 27 -52 81 -52 l49 0 30 60 c30 59 30 61
14 93 -29 58 -43 67 -99 67 -28 0 -56 -5 -63 -12z"/>
<path d="M1848 1203 c-30 -67 -30 -72 -7 -120 28 -60 33 -63 94 -63 l50 0 28
60 c18 41 24 66 19 78 -5 9 -15 31 -23 47 -14 28 -18 30 -79 33 l-65 2 -17
-37z"/>
<path d="M2186 733 c-8 -22 -28 -56 -45 -77 -11 -13 -8 -26 20 -81 l34 -65 62
0 c53 0 64 3 77 22 9 12 16 30 16 39 0 9 7 22 15 29 22 19 18 42 -15 88 -16
23 -30 46 -30 52 0 6 -28 10 -64 10 -52 0 -65 -3 -70 -17z"/>
<path d="M1573 650 c-30 -37 -37 -56 -24 -65 6 -3 11 -14 11 -24 0 -29 33 -51
78 -51 38 0 42 3 63 46 19 37 21 48 11 62 -7 9 -16 27 -22 40 -8 18 -17 22
-52 21 -35 0 -47 -5 -65 -29z"/>
<path d="M930 633 c-36 -60 -3 -123 65 -123 28 0 37 5 50 30 20 38 19 61 -2
99 -15 26 -24 31 -55 31 -31 0 -39 -5 -58 -37z"/>
</g>
</svg>
